<?xml version="1.0" encoding="UTF-8" standalone="no"?>
<svg
   xmlns:dc="http://purl.org/dc/elements/1.1/"
   xmlns:cc="http://creativecommons.org/ns#"
   xmlns:rdf="http://www.w3.org/1999/02/22-rdf-syntax-ns#"
   xmlns:svg="http://www.w3.org/2000/svg"
   xmlns="http://www.w3.org/2000/svg"
   xmlns:sodipodi="http://sodipodi.sourceforge.net/DTD/sodipodi-0.dtd"
   xmlns:inkscape="http://www.inkscape.org/namespaces/inkscape"
   inkscape:version="1.0 (4035a4fb49, 2020-05-01)"
   sodipodi:docname="safari-pinned-tab.svg"
   id="svg10"
   preserveAspectRatio="xMidYMid meet"
   viewBox="0 0 388.000000 388.000000"
   height="388.000000pt"
   width="388.000000pt"
   version="1.0">
  <defs
     id="defs14" />
  <sodipodi:namedview
     inkscape:current-layer="svg10"
     inkscape:window-maximized="0"
     inkscape:window-y="0"
     inkscape:window-x="-6"
     inkscape:cy="265.57133"
     inkscape:cx="215.72102"
     inkscape:zoom="0.81668814"
     showgrid="false"
     id="namedview12"
     inkscape:window-height="1002"
     inkscape:window-width="1457"
     inkscape:pageshadow="2"
     inkscape:pageopacity="0"
     guidetolerance="10"
     gridtolerance="10"
     objecttolerance="10"
     borderopacity="1"
     bordercolor="#666666"
     pagecolor="#ffffff" />
  <metadata
     id="metadata2">
Created by potrace 1.11, written by Peter Selinger 2001-2013
<rdf:RDF>
  <cc:Work
     rdf:about="">
    <dc:format>image/svg+xml</dc:format>
    <dc:type
       rdf:resource="http://purl.org/dc/dcmitype/StillImage" />
  </cc:Work>
</rdf:RDF>
</metadata>
  <path
     id="path16"
     d="m 85.405923,96.426041 c 2.448916,1.836683 5.022548,3.51789 7.346746,5.510059 6.253762,5.36037 11.964931,11.34766 18.366861,16.53018 6.47228,5.23947 13.46434,9.80212 20.20356,14.69349 15.6695,11.37303 72.0123,51.94891 83.56923,61.529 8.33223,6.90698 15.40982,15.20301 22.95858,22.95858 14.79863,15.20408 29.63491,30.37723 44.08047,45.91716 12.32091,13.25431 22.73196,31.82237 38.57042,41.32544"
     style="fill:none;stroke:#000000;stroke-width:0.75px;stroke-linecap:butt;stroke-linejoin:miter;stroke-opacity:1" />
  <path
     id="path18"
     d="m 303.05327,144.17989 c -7.60922,-0.53473 -9.72022,2.89407 -16.53018,7.34674 -33.04438,21.60594 4.08733,-6.0235 -49.59054,38.57042 -17.21655,14.30298 -28.92663,23.88606 -46.8355,36.73373 -3.31774,2.38011 -28.71318,19.15611 -33.9787,23.87692 -3.90537,3.50137 -19.89435,20.91268 -23.87693,27.5503 -0.49803,0.83007 -0.4203,1.92496 -0.91833,2.75503 -1.53116,2.55192 -4.04688,4.78617 -5.51007,7.34674 -0.62619,1.09585 -0.35389,2.54448 -0.91834,3.67337 -2.05314,4.10629 -1.83669,0.24498 -1.83669,2.75504"
     style="fill:none;stroke:#000000;stroke-width:0.75px;stroke-linecap:butt;stroke-linejoin:miter;stroke-opacity:1" />
</svg>
